<svg xmlns="http://www.w3.org/2000/svg" width="245.431" height="265.953" viewBox="0 0 245.431 265.953">
    <g stroke-miterlimit="10" style="mix-blend-mode:normal">
        <path d="M1.893 264.143C.038 262.31.154 259.35.154 259.35V75.179H245.43v184.026s-.025 2.781-1.883 4.648c-1.857 1.867-4.831 2.1-4.831 2.1H6.835s-3.088.023-4.942-1.81z" fill="#0c89db"/>
        <path d="M.176 75.355.012 35.283s-.413-7.318 3.59-10.878c4.526-4.025 11.01-3.794 11.01-3.794l217.4-.002s6.79-.703 10.392 3.059c3.602 3.762 2.95 10.875 2.95 10.875v40.812z" fill="#046bbf"/>
        <path d="M44.218 12.5v35.28m156.663-35.146v35.28" fill="none" stroke="#3ccbf4" stroke-width="25" stroke-linecap="round"/>
        <path d="M27.665 232.466v-26.441h26.738v26.44zm54.02-.348v-26.44h26.737v26.44zm55.207.969v-26.442h26.738v26.441zM28.107 184.78v-26.44h26.738v26.44zm54.02-.348v-26.44h26.738v26.44zm54.911-.05v-26.441h26.738v26.44zm54.019-.051v-26.44h26.738v26.44zM82.272 135.728v-26.44h26.738v26.44zm53.723-.051v-26.44h26.738v26.44zm54.614.544v-26.44h26.738v26.44z" fill="#fff"/>
    </g>
</svg>
